<mxfile host="app.diagrams.net" agent="Mozilla/5.0 (Macintosh; Intel Mac OS X 10_15_7) AppleWebKit/537.36 (KHTML, like Gecko) Chrome/133.0.0.0 Safari/537.36" version="26.0.16">
  <diagram name="第 1 页" id="zYLh9SmXhSbaYedIxdnW">
    <mxGraphModel dx="1434" dy="761" grid="1" gridSize="10" guides="1" tooltips="1" connect="1" arrows="1" fold="1" page="1" pageScale="1" pageWidth="827" pageHeight="1169" math="0" shadow="0">
      <root>
        <mxCell id="0" />
        <mxCell id="1" parent="0" />
        <mxCell id="sEfCx93ZPlgC17M_b71b-1" value="pyright: lsp-server" style="rounded=1;whiteSpace=wrap;html=1;" parent="1" vertex="1">
          <mxGeometry x="380" y="270" width="120" height="60" as="geometry" />
        </mxCell>
        <mxCell id="sEfCx93ZPlgC17M_b71b-2" value="monaco-languageclient" style="rounded=1;whiteSpace=wrap;html=1;" parent="1" vertex="1">
          <mxGeometry x="30" y="40" width="170" height="80" as="geometry" />
        </mxCell>
        <mxCell id="sEfCx93ZPlgC17M_b71b-8" value="&lt;div style=&quot;color: rgb(214, 214, 221); background-color: rgb(24, 24, 24); font-family: &amp;quot;Meslo LG S for Powerline&amp;quot;, Menlo, Monaco, &amp;quot;Courier New&amp;quot;, monospace, Menlo, Monaco, &amp;quot;Courier New&amp;quot;, monospace; font-size: 14px; line-height: 21px; white-space: pre;&quot;&gt;&lt;span style=&quot;color: #82d2ce;&quot;&gt;vscode-languageclient&lt;/span&gt;&lt;/div&gt;" style="rounded=1;whiteSpace=wrap;html=1;" parent="1" vertex="1">
          <mxGeometry x="283" y="20" width="260" height="80" as="geometry" />
        </mxCell>
        <mxCell id="sEfCx93ZPlgC17M_b71b-9" value="&lt;div style=&quot;color: rgb(214, 214, 221); background-color: rgb(24, 24, 24); font-family: &amp;quot;Meslo LG S for Powerline&amp;quot;, Menlo, Monaco, &amp;quot;Courier New&amp;quot;, monospace, Menlo, Monaco, &amp;quot;Courier New&amp;quot;, monospace; font-size: 14px; line-height: 21px; white-space: pre;&quot;&gt;&lt;div style=&quot;line-height: 21px;&quot;&gt;&lt;span style=&quot;color: #e394dc;&quot;&gt;@codingame/monaco-vscode-api&lt;/span&gt;&lt;/div&gt;&lt;/div&gt;" style="rounded=1;whiteSpace=wrap;html=1;" parent="1" vertex="1">
          <mxGeometry x="283" y="130" width="260" height="80" as="geometry" />
        </mxCell>
      </root>
    </mxGraphModel>
  </diagram>
</mxfile>
